# xmcd
#
# Track frame offsets:
#	150
#	15690
#	28831
#	40045
#	55112
#	68138
#	80905
#	92805
#	104260
#	119772
#	133076
#	146899
#	160262
#	175802
#	188135
#	199750
#	208380
#	221204
#
# Disc length: 3139 seconds
#
# Revision: 1
# Processed by: cddbd v1.5.2PL0 Copyright (c) Steve Scherf et al.
# Submitted via: audiograbber 1.83.01
#
DISCID=190c4112
DTITLE=Billie Jo Spears - Blanket On The Ground
DYEAR=2008
DGENRE=Country
TTITLE0=Blanket On The Ground
TTITLE1=What I've Got In Mind
TTITLE2=Misty Blue
TTITLE3=I Don't Want To Talk About It
TTITLE4='57 Chevrolet
TTITLE5=Dallas
TTITLE6=Ease The Want In Me
TTITLE7=Outlaw Woman
TTITLE8=Something For Your Memory To Do
TTITLE9=Fever
TTITLE10=Come Back When You Can Stay Forever
TTITLE11=Blue Orleans
TTITLE12=I've Never Loved Anyone More
TTITLE13=Sunshine
TTITLE14=Wisdom Of A Fool
TTITLE15=You're My Man
TTITLE16=He's On The Run Again
TTITLE17=I'll Never Be Free
EXTD=
EXTT0=
EXTT1=
EXTT2=
EXTT3=
EXTT4=
EXTT5=
EXTT6=
EXTT7=
EXTT8=
EXTT9=
EXTT10=
EXTT11=
EXTT12=
EXTT13=
EXTT14=
EXTT15=
EXTT16=
EXTT17=
PLAYORDER=
